<?xml version="1.0" encoding="utf-8"?>
<!-- Generator: Adobe Illustrator 25.0.1, SVG Export Plug-In . SVG Version: 6.00 Build 0)  -->
<svg version="1.1" id="Layer_3" xmlns="http://www.w3.org/2000/svg" xmlns:xlink="http://www.w3.org/1999/xlink" x="0px" y="0px"
	 viewBox="0 0 595.28 841.89" style="enable-background:new 0 0 595.28 841.89;" xml:space="preserve">
<style type="text/css">
	.st0{fill:#FFFFFF;}
</style>
<path class="st0" d="M379.92,315.17c6.58,6.58,6.58,17.25,0,23.83c-3.29,3.3-7.6,4.94-11.92,4.94c-4.31,0-8.62-1.64-11.91-4.94
	l-59.22-59.21L237.66,339c-3.29,3.3-7.6,4.94-11.92,4.94c-4.31,0-8.62-1.64-11.92-4.94c-6.58-6.58-6.58-17.25,0-23.83l59.22-59.21
	l-59.22-59.22c-6.58-6.58-6.58-17.25,0-23.83c3.3-3.29,7.61-4.93,11.92-4.93c4.32,0,8.63,1.64,11.92,4.93l59.21,59.21l59.22-59.21
	c3.29-3.29,7.6-4.93,11.91-4.93c4.32,0,8.63,1.64,11.92,4.93c6.58,6.58,6.58,17.25,0,23.83l-59.21,59.22L379.92,315.17z"/>
</svg>
