<?xml version="1.0" encoding="utf-8"?>
<!-- Generator: Adobe Illustrator 25.0.1, SVG Export Plug-In . SVG Version: 6.00 Build 0)  -->
<svg version="1.1" id="Layer_2" xmlns="http://www.w3.org/2000/svg" xmlns:xlink="http://www.w3.org/1999/xlink" x="0px" y="0px"
	 viewBox="0 0 595.28 841.89" style="enable-background:new 0 0 595.28 841.89;" xml:space="preserve">
<style type="text/css">
	.st0{fill:#FFFFFF;}
</style>
<path class="st0" d="M429.6,182.68H152.06c-13.54,0-24.51-10.97-24.51-24.51v0c0-13.54,10.97-24.51,24.51-24.51H429.6
	c13.54,0,24.51,10.97,24.51,24.51v0C454.11,171.71,443.13,182.68,429.6,182.68z"/>
<path class="st0" d="M430.11,284.3H151.55c-13.54,0-24.51-10.97-24.51-24.51v0c0-13.54,10.97-24.51,24.51-24.51h278.55
	c13.54,0,24.51,10.97,24.51,24.51v0C454.62,273.32,443.64,284.3,430.11,284.3z"/>
<path class="st0" d="M430.11,385.91H151.55c-13.54,0-24.51-10.97-24.51-24.51v0c0-13.54,10.97-24.51,24.51-24.51h278.55
	c13.54,0,24.51,10.97,24.51,24.51v0C454.62,374.94,443.64,385.91,430.11,385.91z"/>
</svg>
