<svg id="Layer_1" data-name="Layer 1" xmlns="http://www.w3.org/2000/svg" viewBox="0 0 559 168"><defs><style>.cls-1{fill:#fff;}</style></defs><title>logow</title><path class="cls-1" d="M84,.28A83.74,83.74,0,1,0,167.74,84,83.75,83.75,0,0,0,84,.28Zm38.4,120.78a5.22,5.22,0,0,1-7.18,1.73c-19.66-12-44.41-14.73-73.56-8.07a5.22,5.22,0,0,1-2.33-10.18c31.9-7.29,59.27-4.15,81.34,9.34A5.22,5.22,0,0,1,122.4,121.06Zm10.25-22.81a6.52,6.52,0,0,1-9,2.16c-22.51-13.84-56.82-17.85-83.45-9.76a6.53,6.53,0,1,1-3.79-12.5c30.41-9.22,68.22-4.76,94.07,11.13a6.53,6.53,0,0,1,2.15,9Zm.88-23.74c-27-16-71.52-17.5-97.29-9.68a7.83,7.83,0,1,1-4.55-15c29.58-9,78.76-7.25,109.83,11.2a7.83,7.83,0,0,1-8,13.47Zm94.56,3.07c-14.46-3.44-17-5.87-17-11,0-4.8,4.52-8,11.25-8,6.52,0,13,2.46,19.76,7.51a.94.94,0,0,0,1.34-.21l7.06-10a1,1,0,0,0-.18-1.29A42.74,42.74,0,0,0,222.52,45C206.91,45,196,54.4,196,67.8c0,14.38,9.41,19.47,25.67,23.4,13.83,3.18,16.17,5.86,16.17,10.63,0,5.29-4.72,8.58-12.32,8.58-8.44,0-15.33-2.85-23-9.51a1,1,0,0,0-.69-.23.94.94,0,0,0-.65.33l-7.92,9.42a1,1,0,0,0,.09,1.32A47.19,47.19,0,0,0,225.2,124c16.82,0,27.69-9.19,27.69-23.42,0-12-7.16-18.66-24.77-22.94ZM291,63.32c-7.29,0-13.27,2.87-18.21,8.76V65.46a.94.94,0,0,0-.94-.95H258.85a.94.94,0,0,0-.94.95v73.6a1,1,0,0,0,.94.95H271.8a1,1,0,0,0,.94-.95V115.83A23.29,23.29,0,0,0,291,124.07c13.55,0,27.27-10.43,27.27-30.37S304.52,63.32,291,63.32ZM303.16,93.7c0,10.15-6.25,17.24-15.21,17.24s-15.53-7.41-15.53-17.24S279.1,76.46,288,76.46s15.21,7.25,15.21,17.24Zm50.21-30.38c-17.45,0-31.12,13.44-31.12,30.59,0,17,13.58,30.27,30.91,30.27,17.51,0,31.22-13.39,31.22-30.48s-13.62-30.38-31-30.38Zm0,47.72c-9.28,0-16.28-7.46-16.28-17.35s6.76-17.13,16.07-17.13S369.54,84,369.54,93.91,362.74,111,353.37,111Zm68.27-46.53H407.39V49.94a1,1,0,0,0-.94-.95H393.5a1,1,0,0,0-.95.95V64.51h-6.22a.94.94,0,0,0-.94.95V76.58a.94.94,0,0,0,.94,1h6.22v28.8c0,11.63,5.79,17.53,17.22,17.53a23.59,23.59,0,0,0,12.12-3,.93.93,0,0,0,.48-.82v-10.6a.94.94,0,0,0-.45-.8.92.92,0,0,0-.92,0,16.35,16.35,0,0,1-7.6,1.83c-4.15,0-6-1.89-6-6.11V77.54h14.25a1,1,0,0,0,.94-1V65.46a.92.92,0,0,0-.93-.95Zm49.64,0V62.78c0-5.27,2-7.61,6.54-7.61a21.87,21.87,0,0,1,7.3,1.34.92.92,0,0,0,.85-.13,1,1,0,0,0,.39-.77V44.7a.93.93,0,0,0-.67-.91,35.54,35.54,0,0,0-10.76-1.55c-11.95,0-18.28,6.74-18.28,19.47v2.74h-6.22a1,1,0,0,0-.95,1V76.58a1,1,0,0,0,.95,1h6.22v44.41a1,1,0,0,0,1,1h12.94a.94.94,0,0,0,.95-1V77.53h12.09l18.52,44.41c-2.1,4.66-4.17,5.59-7,5.59a14.86,14.86,0,0,1-7.14-2,1,1,0,0,0-.75-.07.94.94,0,0,0-.56.51l-4.39,9.63a1,1,0,0,0,.41,1.23,27.25,27.25,0,0,0,13.82,3.54c9.56,0,14.85-4.46,19.5-16.44l22.46-58a.92.92,0,0,0-.1-.88.91.91,0,0,0-.77-.41H524.11a.94.94,0,0,0-.9.63L509.4,104.64,494.28,65.18a.94.94,0,0,0-.88-.61H471.28Zm-28.78,0H429.55a1,1,0,0,0-.95.95v56.48a1,1,0,0,0,.95,1H442.5a1,1,0,0,0,.95-1V65.46a1,1,0,0,0-.95-.95Zm-6.4-25.72a9.29,9.29,0,1,0,9.28,9.28A9.28,9.28,0,0,0,436.1,38.79ZM549.52,82.67a9.14,9.14,0,1,1,9.16-9.17A9.08,9.08,0,0,1,549.52,82.67Zm.05-17.37a8.23,8.23,0,1,0,8.15,8.2A8.15,8.15,0,0,0,549.57,65.3Zm2,9.14,2.58,3.61H552l-2.32-3.31h-2v3.31h-1.82V68.49h4.26c2.23,0,3.69,1.13,3.69,3.05a2.84,2.84,0,0,1-2.21,2.9Zm-1.54-4.31h-2.37v3h2.37c1.18,0,1.89-.58,1.89-1.51S551.23,70.13,550.05,70.13Z"/></svg>