<svg xmlns="http://www.w3.org/2000/svg" viewBox="0 0 391.15 391.15">
  <defs>
    <style>
      .cls-1 {
        fill: #222225;
      }

      .cls-2 {
        fill: #fff;
      }
    </style>
  </defs>
  <g id="eclipse">
    <circle class="cls-1" cx="195.57" cy="195.57" r="195.57"/>
  </g>
  <g id="logt">
    <path class="cls-2" d="M408.18,364.39a81.71,81.71,0,0,1-23.51,6.45,41.05,41.05,0,0,0,18-22.65,81.83,81.83,0,0,1-26,9.93,41,41,0,0,0-69.76,37.33,116.21,116.21,0,0,1-84.37-42.76,41,41,0,0,0,12.66,54.65,40.65,40.65,0,0,1-18.53-5.12,41,41,0,0,0,32.83,40.66,40.94,40.94,0,0,1-18.49.69A41,41,0,0,0,269.26,472a82.34,82.34,0,0,1-60.61,17,115.91,115.91,0,0,0,62.75,18.39c76,0,119-64.19,116.35-121.77A83.16,83.16,0,0,0,408.18,364.39Z" transform="translate(-112.84 -230.7)"/>
  </g>
</svg>
