<svg xmlns="http://www.w3.org/2000/svg" viewBox="0 0 391.15 391.15">
  <defs>
    <style>
      .cls-1 {
        fill: #222225;
      }

      .cls-2 {
        fill: #fff;
      }
    </style>
  </defs>
  <g id="eclipse">
    <circle class="cls-1" cx="195.57" cy="195.57" r="195.57"/>
  </g>
  <g id="logi">
    <g>
      <path class="cls-2" d="M307,350.5c-22.09,0-24.86.1-33.53.49s-14.57,1.77-19.75,3.78A41.58,41.58,0,0,0,230,378.56c-2,5.17-3.39,11.09-3.79,19.74s-.48,11.45-.48,33.54.09,24.86.48,33.54S227.93,480,230,485.12a41.58,41.58,0,0,0,23.78,23.79c5.18,2,11.09,3.38,19.75,3.78s11.44.49,33.53.49,24.86-.1,33.54-.49,14.57-1.77,19.74-3.78a41.56,41.56,0,0,0,23.79-23.79c2-5.17,3.39-11.09,3.78-19.74s.49-11.45.49-33.54-.09-24.86-.49-33.54-1.77-14.57-3.78-19.74a41.56,41.56,0,0,0-23.79-23.79c-5.17-2-11.08-3.38-19.74-3.78S329.1,350.5,307,350.5Zm0,14.66c21.72,0,24.29.08,32.87.47,7.93.36,12.24,1.69,15.1,2.8a26.93,26.93,0,0,1,15.44,15.44c1.11,2.87,2.44,7.17,2.8,15.1.39,8.58.47,11.15.47,32.87s-.08,24.29-.47,32.87c-.36,7.93-1.69,12.23-2.8,15.1A26.93,26.93,0,0,1,355,495.25c-2.86,1.11-7.17,2.44-15.1,2.8-8.58.39-11.15.47-32.87.47s-24.29-.08-32.86-.47c-7.93-.36-12.24-1.69-15.11-2.8a25.3,25.3,0,0,1-9.35-6.09,25,25,0,0,1-6.08-9.35c-1.12-2.87-2.44-7.17-2.8-15.1-.4-8.58-.48-11.15-.48-32.87s.08-24.29.48-32.87c.36-7.93,1.68-12.23,2.8-15.1a25,25,0,0,1,6.08-9.35,25.3,25.3,0,0,1,9.35-6.09c2.87-1.11,7.18-2.44,15.11-2.8,8.57-.39,11.14-.47,32.86-.47" transform="translate(-111.44 -236.27)"/>
      <path class="cls-2" d="M307,459a27.11,27.11,0,1,1,27.12-27.11A27.11,27.11,0,0,1,307,459Zm0-68.88a41.77,41.77,0,1,0,41.77,41.77A41.77,41.77,0,0,0,307,390.07m53.18-1.65a9.76,9.76,0,1,1-9.76-9.76,9.76,9.76,0,0,1,9.76,9.76" transform="translate(-111.44 -236.27)"/>
    </g>
  </g>
</svg>
